<?xml version="1.0" encoding="UTF-8" standalone="no"?><!DOCTYPE svg PUBLIC "-//W3C//DTD SVG 1.1//EN"
    "http://www.w3.org/Graphics/SVG/1.1/DTD/svg11.dtd">
<svg width="100%" height="100%" viewBox="0 0 375 77" version="1.1"
    xmlns="http://www.w3.org/2000/svg" xmlns:xlink="http://www.w3.org/1999/xlink"
    xml:space="preserve" xmlns:serif="http://www.serif.com/"
    style="fill-rule:evenodd;clip-rule:evenodd;stroke-linejoin:round;stroke-miterlimit:2;"><g transform="matrix(2.04547,0,0,2.04547,-1337.36,-3086.69)"><g transform="matrix(50,0,0,50,651.061,1545.9)"><path d="M0.055,-0l0,-0.727l0.496,-0l0,0.143l-0.32,-0l-0,0.149l0.289,-0l-0,0.143l-0.289,-0l-0,0.292l-0.176,-0Z" style="fill:#fff;fill-rule:nonzero;"/></g><g
    transform="matrix(50,0,0,50,680.394,1545.9)"><rect x="0.055" y="-0.727" width="0.174" height="0.727" style="fill:#fff;fill-rule:nonzero;"/></g><g
    transform="matrix(50,0,0,50,692.254,1545.9)"><path d="M0.407,-0.236l-0,-0.309l0.173,-0l0,0.545l-0.165,-0l-0,-0.101l-0.006,-0c-0.012,0.033 -0.032,0.059 -0.062,0.079c-0.029,0.019 -0.064,0.029 -0.104,0.029c-0.038,0 -0.07,-0.008 -0.099,-0.025c-0.028,-0.017 -0.05,-0.041 -0.065,-0.072c-0.016,-0.031 -0.024,-0.067 -0.024,-0.108l0,-0.347l0.174,-0l-0,0.313c-0,0.03 0.008,0.053 0.023,0.07c0.015,0.017 0.036,0.026 0.063,0.026c0.017,-0 0.033,-0.004 0.047,-0.012c0.014,-0.008 0.025,-0.019 0.033,-0.034c0.008,-0.014 0.012,-0.032 0.012,-0.054Z" style="fill:#fff;fill-rule:nonzero;"/></g><g
    transform="matrix(50,0,0,50,721.303,1545.9)"><path d="M0.363,-0.545l-0,0.127l-0.344,0l-0,-0.127l0.344,-0Zm-0.272,-0.131l0.173,-0l0,0.504c0,0.011 0.002,0.02 0.006,0.026c0.003,0.007 0.008,0.011 0.015,0.014c0.006,0.003 0.014,0.004 0.024,0.004c0.006,0 0.013,-0.001 0.021,-0.002c0.007,-0.001 0.013,-0.002 0.017,-0.003l0.026,0.125c-0.008,0.003 -0.02,0.006 -0.035,0.009c-0.015,0.004 -0.033,0.006 -0.054,0.007c-0.041,0.002 -0.075,-0.003 -0.104,-0.015c-0.029,-0.011 -0.051,-0.029 -0.067,-0.053c-0.015,-0.025 -0.022,-0.055 -0.022,-0.092l-0,-0.524Z" style="fill:#fff;fill-rule:nonzero;"/></g><g
    transform="matrix(50,0,0,50,739.484,1545.9)"><path d="M0.363,-0.545l-0,0.127l-0.344,0l-0,-0.127l0.344,-0Zm-0.272,-0.131l0.173,-0l0,0.504c0,0.011 0.002,0.02 0.006,0.026c0.003,0.007 0.008,0.011 0.015,0.014c0.006,0.003 0.014,0.004 0.024,0.004c0.006,0 0.013,-0.001 0.021,-0.002c0.007,-0.001 0.013,-0.002 0.017,-0.003l0.026,0.125c-0.008,0.003 -0.02,0.006 -0.035,0.009c-0.015,0.004 -0.033,0.006 -0.054,0.007c-0.041,0.002 -0.075,-0.003 -0.104,-0.015c-0.029,-0.011 -0.051,-0.029 -0.067,-0.053c-0.015,-0.025 -0.022,-0.055 -0.022,-0.092l-0,-0.524Z" style="fill:#fff;fill-rule:nonzero;"/></g><g
    transform="matrix(50,0,0,50,757.382,1545.9)"><path d="M0.31,0.01c-0.057,0 -0.106,-0.011 -0.148,-0.034c-0.041,-0.022 -0.072,-0.054 -0.095,-0.096c-0.022,-0.043 -0.033,-0.093 -0.033,-0.151c0,-0.056 0.011,-0.105 0.034,-0.148c0.022,-0.042 0.053,-0.075 0.094,-0.098c0.04,-0.024 0.088,-0.036 0.143,-0.036c0.038,0 0.074,0.007 0.106,0.019c0.032,0.012 0.06,0.03 0.084,0.053c0.023,0.024 0.041,0.053 0.054,0.088c0.013,0.034 0.02,0.074 0.02,0.119l-0,0.043l-0.474,0l-0,-0.101l0.312,0c0,-0.018 -0.004,-0.035 -0.013,-0.049c-0.008,-0.015 -0.02,-0.026 -0.035,-0.034c-0.015,-0.008 -0.032,-0.012 -0.051,-0.012c-0.019,-0 -0.037,0.004 -0.052,0.013c-0.015,0.008 -0.028,0.02 -0.037,0.035c-0.009,0.015 -0.013,0.031 -0.014,0.05l0,0.103c0,0.022 0.005,0.042 0.014,0.058c0.008,0.017 0.021,0.03 0.037,0.039c0.016,0.009 0.035,0.014 0.057,0.014c0.016,-0 0.029,-0.002 0.042,-0.006c0.013,-0.005 0.023,-0.011 0.032,-0.019c0.009,-0.009 0.016,-0.019 0.021,-0.031l0.159,0.005c-0.007,0.036 -0.021,0.067 -0.043,0.093c-0.023,0.026 -0.052,0.047 -0.088,0.061c-0.036,0.015 -0.078,0.022 -0.126,0.022Z" style="fill:#fff;fill-rule:nonzero;"/></g><g
    transform="matrix(50,0,0,50,786.502,1545.9)"><path d="M0.055,-0l0,-0.545l0.169,-0l-0,0.099l0.005,-0c0.01,-0.036 0.026,-0.063 0.049,-0.08c0.023,-0.018 0.049,-0.027 0.079,-0.027c0.008,0 0.016,0.001 0.024,0.002c0.009,0.001 0.017,0.002 0.024,0.004l0,0.151c-0.008,-0.003 -0.019,-0.005 -0.032,-0.006c-0.014,-0.002 -0.026,-0.003 -0.036,-0.003c-0.021,0 -0.039,0.005 -0.056,0.014c-0.016,0.009 -0.029,0.022 -0.038,0.038c-0.01,0.016 -0.014,0.035 -0.014,0.057l-0,0.296l-0.174,0Z" style="fill:#fff;fill-rule:nonzero;"/></g><g
    transform="matrix(50,0,0,50,805.109,1545.9)"><path d="M0.338,0.01c-0.057,-0 -0.107,-0.009 -0.152,-0.027c-0.044,-0.018 -0.079,-0.043 -0.104,-0.074c-0.025,-0.031 -0.038,-0.066 -0.038,-0.106c-0,-0.03 0.007,-0.057 0.022,-0.083c0.014,-0.025 0.034,-0.046 0.059,-0.062c0.024,-0.017 0.052,-0.028 0.082,-0.032l0,-0.006c-0.04,-0.007 -0.072,-0.026 -0.098,-0.056c-0.025,-0.03 -0.038,-0.065 -0.038,-0.105c-0,-0.038 0.012,-0.071 0.035,-0.101c0.023,-0.029 0.054,-0.053 0.095,-0.07c0.04,-0.017 0.085,-0.025 0.137,-0.025c0.051,-0 0.097,0.008 0.137,0.025c0.04,0.018 0.072,0.041 0.095,0.07c0.023,0.03 0.034,0.064 0.035,0.101c-0.001,0.041 -0.013,0.076 -0.039,0.105c-0.026,0.03 -0.058,0.049 -0.098,0.056l0,0.006c0.03,0.004 0.058,0.015 0.083,0.032c0.024,0.016 0.044,0.037 0.059,0.062c0.014,0.026 0.021,0.053 0.022,0.083c-0.001,0.04 -0.013,0.075 -0.038,0.106c-0.026,0.031 -0.061,0.056 -0.105,0.074c-0.044,0.018 -0.095,0.027 -0.151,0.027Zm-0,-0.125c0.021,0 0.04,-0.004 0.057,-0.012c0.016,-0.008 0.029,-0.02 0.038,-0.034c0.009,-0.015 0.014,-0.031 0.014,-0.05c0,-0.019 -0.005,-0.036 -0.014,-0.05c-0.01,-0.015 -0.023,-0.027 -0.039,-0.035c-0.016,-0.008 -0.035,-0.013 -0.056,-0.013c-0.021,0 -0.04,0.005 -0.056,0.013c-0.017,0.008 -0.03,0.02 -0.039,0.035c-0.01,0.014 -0.015,0.031 -0.015,0.05c0,0.019 0.005,0.035 0.014,0.05c0.01,0.014 0.022,0.026 0.039,0.034c0.016,0.008 0.035,0.012 0.057,0.012Zm-0,-0.318c0.018,0 0.035,-0.003 0.049,-0.011c0.014,-0.008 0.025,-0.018 0.034,-0.031c0.008,-0.014 0.012,-0.029 0.012,-0.046c-0,-0.017 -0.004,-0.032 -0.012,-0.045c-0.008,-0.013 -0.02,-0.024 -0.034,-0.031c-0.014,-0.008 -0.031,-0.011 -0.049,-0.011c-0.019,-0 -0.035,0.003 -0.05,0.011c-0.014,0.007 -0.025,0.018 -0.033,0.031c-0.008,0.013 -0.012,0.028 -0.012,0.045c-0,0.017 0.004,0.032 0.012,0.045c0.008,0.014 0.019,0.024 0.034,0.032c0.014,0.007 0.03,0.011 0.049,0.011Z" style="fill:#ff4081;fill-rule:nonzero;"/></g></g></svg>